<svg xmlns="http://www.w3.org/2000/svg" xml:space="preserve"  version="1.1" style="shape-rendering:geometricPrecision; text-rendering:geometricPrecision; image-rendering:optimizeQuality; fill-rule:evenodd; clip-rule:evenodd"
     viewBox="0 0 40885.84 9780.98"
     xmlns:xlink="http://www.w3.org/1999/xlink">
						 <defs>
						  <style type="text/css">
						   <![CDATA[
                           .fil0 {fill:#2B2A29;fill-rule:nonzero}
                           .fil25 {fill:#5B5B5B;fill-rule:nonzero}
                           .fil14 {fill:url(#id0)}
                           .fil19 {fill:url(#id1)}
                           .fil1 {fill:url(#id2)}
                           .fil6 {fill:url(#id3)}
                           .fil4 {fill:url(#id4)}
                           .fil15 {fill:url(#id5)}
                           .fil11 {fill:url(#id6)}
                           .fil13 {fill:url(#id7)}
                           .fil12 {fill:url(#id8)}
                           .fil3 {fill:url(#id9)}
                           .fil9 {fill:url(#id10)}
                           .fil17 {fill:url(#id11)}
                           .fil2 {fill:url(#id12)}
                           .fil22 {fill:url(#id13)}
                           .fil21 {fill:url(#id14)}
                           .fil20 {fill:url(#id15)}
                           .fil5 {fill:url(#id16)}
                           .fil23 {fill:url(#id17)}
                           .fil7 {fill:url(#id18)}
                           .fil24 {fill:url(#id19)}
                           .fil10 {fill:url(#id20)}
                           .fil18 {fill:url(#id21)}
                           .fil8 {fill:url(#id22)}
                           .fil16 {fill:url(#id23)}
                           ]]>
						  </style>
                             <linearGradient id="id0" gradientUnits="userSpaceOnUse" x1="355.89" y1="3588.32" x2="5880.64" y2="3588.32">
						   <stop offset="0" style="stop-opacity:1; stop-color:#E5097F"/>
                                 <stop offset="0.490196" style="stop-opacity:1; stop-color:#EB64A0"/>
                                 <stop offset="1" style="stop-opacity:1; stop-color:#E5097F"/>
						  </linearGradient>
                             <linearGradient id="id1" gradientUnits="userSpaceOnUse" x1="6659.13" y1="3826.95" x2="2598.59" y2="8656.46">
						   <stop offset="0" style="stop-opacity:1; stop-color:#0060AA"/>
                                 <stop offset="0.301961" style="stop-opacity:1; stop-color:#0060AA"/>
                                 <stop offset="1" style="stop-opacity:1; stop-color:#00B1EB"/>
						  </linearGradient>
                             <linearGradient id="id2" gradientUnits="userSpaceOnUse" x1="4808.68" y1="4092.54" x2="2717.37" y2="3737.8">
						   <stop offset="0" style="stop-opacity:1; stop-color:#6A1B39"/>
                                 <stop offset="1" style="stop-opacity:1; stop-color:#B2185F"/>
						  </linearGradient>
                             <linearGradient id="id3" gradientUnits="userSpaceOnUse" x1="2881.19" y1="5402.87" x2="4633.18" y2="6388.4">
						   <stop offset="0" style="stop-opacity:1; stop-color:#005392"/>
                                 <stop offset="1" style="stop-opacity:1; stop-color:#00A0E3"/>
						  </linearGradient>
                             <linearGradient id="id4" gradientUnits="userSpaceOnUse" x1="4986.55" y1="6280.12" x2="6804.25" y2="5420.81">
						   <stop offset="0" style="stop-opacity:1; stop-color:#2B2A29"/>
                                 <stop offset="1" style="stop-opacity:1; stop-color:#9D9E9E"/>
						  </linearGradient>
                             <linearGradient id="id5" gradientUnits="userSpaceOnUse" xlink:href="#id0" x1="773.17" y1="4490.01" x2="6465.72" y2="4490.01">
						  </linearGradient>
                             <linearGradient id="id6" gradientUnits="userSpaceOnUse" x1="4535.83" y1="6446.85" x2="6037.6" y2="76.62">
						   <stop offset="0" style="stop-opacity:1; stop-color:#EF7F1A"/>
                                 <stop offset="0.478431" style="stop-opacity:1; stop-color:#F6A50D"/>
                                 <stop offset="1" style="stop-opacity:1; stop-color:#FECC00"/>
						  </linearGradient>
                             <linearGradient id="id7" gradientUnits="userSpaceOnUse" x1="4985.78" y1="7333.76" x2="1746.37" y2="1923.88">
						   <stop offset="0" style="stop-opacity:1; stop-color:#C4146E"/>
                                 <stop offset="0.509804" style="stop-opacity:1; stop-color:#C4146E"/>
                                 <stop offset="1" style="stop-opacity:1; stop-color:#E5097F"/>
						  </linearGradient>
                             <linearGradient id="id8" gradientUnits="userSpaceOnUse" x1="6411.91" y1="5224.18" x2="111.65" y2="3416.39">
						   <stop offset="0" style="stop-opacity:1; stop-color:#A1195B"/>
                                 <stop offset="0.419608" style="stop-opacity:1; stop-color:#A11A5C"/>
                                 <stop offset="1" style="stop-opacity:1; stop-color:#E5097F"/>
						  </linearGradient>
                             <linearGradient id="id9" gradientUnits="userSpaceOnUse" x1="4849.29" y1="6107.26" x2="6840.22" y2="5277.32">
						   <stop offset="0" style="stop-opacity:1; stop-color:#2B2A29"/>
                                 <stop offset="1" style="stop-opacity:1; stop-color:#727271"/>
						  </linearGradient>
                             <linearGradient id="id10" gradientUnits="userSpaceOnUse" x1="5212.27" y1="3192.88" x2="3428.56" y2="9499.14">
						   <stop offset="0" style="stop-opacity:1; stop-color:#163E73"/>
                                 <stop offset="1" style="stop-opacity:1; stop-color:#00A0E3"/>
						  </linearGradient>
                             <linearGradient id="id11" gradientUnits="userSpaceOnUse" x1="4690.33" y1="7657.33" x2="8288.57" y2="4381.48">
						   <stop offset="0" style="stop-opacity:1; stop-color:#727271"/>
                                 <stop offset="0.509804" style="stop-opacity:1; stop-color:#9D9D9D"/>
                                 <stop offset="1" style="stop-opacity:1; stop-color:#727271"/>
						  </linearGradient>
                             <linearGradient id="id12" gradientUnits="userSpaceOnUse" x1="4699.59" y1="3947.18" x2="2725.19" y2="3567.44">
						   <stop offset="0" style="stop-opacity:1; stop-color:#6A1B39"/>
                                 <stop offset="1" style="stop-opacity:1; stop-color:#E5097F"/>
						  </linearGradient>
                             <linearGradient id="id13" gradientUnits="userSpaceOnUse" x1="2247.22" y1="4940.05" x2="7710.61" y2="1792.05">
						   <stop offset="0" style="stop-opacity:1; stop-color:#FBBA00"/>
                                 <stop offset="0.290196" style="stop-opacity:1; stop-color:#FDD300"/>
                                 <stop offset="0.611765" style="stop-opacity:1; stop-color:#FBBA00"/>
                                 <stop offset="1" style="stop-opacity:1; stop-color:#FFED00"/>
						  </linearGradient>
                             <linearGradient id="id14" gradientUnits="userSpaceOnUse" x1="2986.83" y1="3808.92" x2="5993.23" y2="8168.01">
						   <stop offset="0" style="stop-opacity:1; stop-color:#00A0E3"/>
                                 <stop offset="0.54902" style="stop-opacity:1; stop-color:#5FC6F1"/>
                                 <stop offset="1" style="stop-opacity:1; stop-color:#00A0E3"/>
						  </linearGradient>
                             <linearGradient id="id15" gradientUnits="userSpaceOnUse" x1="2095.34" y1="4473.22" x2="5081.34" y2="8505.54">
						   <stop offset="0" style="stop-opacity:1; stop-color:#0096DB"/>
                                 <stop offset="0.54902" style="stop-opacity:1; stop-color:#5FC6F1"/>
                                 <stop offset="1" style="stop-opacity:1; stop-color:#009BDA"/>
						  </linearGradient>
                             <linearGradient id="id16" gradientUnits="userSpaceOnUse" x1="2938.28" y1="5221.94" x2="4891.78" y2="6467.71">
						   <stop offset="0" style="stop-opacity:1; stop-color:#005392"/>
                                 <stop offset="1" style="stop-opacity:1; stop-color:#0083C3"/>
						  </linearGradient>
                             <linearGradient id="id17" gradientUnits="userSpaceOnUse" x1="4195.08" y1="1740.61" x2="7843.82" y2="4496.03">
						   <stop offset="0" style="stop-opacity:1; stop-color:#FFED00"/>
                                 <stop offset="0.470588" style="stop-opacity:1; stop-color:#FFF59B"/>
                                 <stop offset="1" style="stop-opacity:1; stop-color:#FFED00"/>
						  </linearGradient>
                             <linearGradient id="id18" gradientUnits="userSpaceOnUse" x1="6839.4" y1="4074.98" x2="4545.93" y2="3450.89">
						   <stop offset="0" style="stop-opacity:1; stop-color:#F18917"/>
                                 <stop offset="0.478431" style="stop-opacity:1; stop-color:#F7AA0C"/>
                                 <stop offset="1" style="stop-opacity:1; stop-color:#FECC00"/>
						  </linearGradient>
                             <linearGradient id="id19" gradientUnits="userSpaceOnUse" xlink:href="#id17" x1="3205.73" y1="2068.99" x2="7029.77" y2="5169.61">
						  </linearGradient>
                             <linearGradient id="id20" gradientUnits="userSpaceOnUse" x1="3345.81" y1="6652.56" x2="9346.26" y2="3921.01">
						   <stop offset="0" style="stop-opacity:1; stop-color:#2B2A29"/>
                                 <stop offset="1" style="stop-opacity:1; stop-color:#898989"/>
						  </linearGradient>
                             <linearGradient id="id21" gradientUnits="userSpaceOnUse" xlink:href="#id11" x1="4016.07" y1="6790.08" x2="7960.39" y2="3445.41">
						  </linearGradient>
                             <linearGradient id="id22" gradientUnits="userSpaceOnUse" x1="6827.91" y1="3946.72" x2="4873.12" y2="3477.5">
						   <stop offset="0" style="stop-opacity:1; stop-color:#F39314"/>
                                 <stop offset="0.478431" style="stop-opacity:1; stop-color:#F9BC0A"/>
                                 <stop offset="1" style="stop-opacity:1; stop-color:#FFE500"/>
						  </linearGradient>
                             <linearGradient id="id23" gradientUnits="userSpaceOnUse" x1="4013.49" y1="2746.3" x2="8469.93" y2="7211.57">
						   <stop offset="0" style="stop-opacity:1; stop-color:#2B2A29"/>
                                 <stop offset="0.368627" style="stop-opacity:1; stop-color:#2B2A29"/>
                                 <stop offset="1" style="stop-opacity:1; stop-color:#898989"/>
						  </linearGradient>
						 </defs>
    <g id="Слой_x0020_1">
						  <metadata id="CorelCorpID_0Corel-Layer"/>
        <g id="_1745200138400">
						   <g>
						    <path class="fil0" d="M37372.01 6772.45l0 -439.26 1911.93 -2253.28c177.99,-197.94 370.34,-412.15 577.04,-642.65l-2325.33 0 0 -601.94 3315.74 0 -8.6 463.68 -1886.09 2228.87c-252.65,292.85 -442.12,507.06 -568.42,642.63l2497.57 0 0 601.96 -3513.84 0z"/>
                               <path class="fil0" d="M36468.56 2835.31l0 2847.09c0,447.41 11.51,810.76 34.48,1090.04l-706.23 0 -68.88 -667.03c-321.53,504.33 -798.08,756.52 -1429.66,756.52 -456.43,0 -816.74,-147.79 -1082.28,-443.34 -265.54,-295.55 -399.03,-730.74 -399.03,-1305.61l0 -2277.67 800.94 0 0 2147.53c0,835.15 318.65,1252.72 955.98,1252.72 292.81,0 548.31,-98.98 766.49,-296.92 218.17,-197.94 327.26,-437.9 327.26,-719.91l0 -2383.43 800.94 0z"/>
                               <path class="fil0" d="M31754.61 6333.18c0,151.84 -50.25,277.93 -152.16,378.26 -101.92,100.33 -232.54,150.5 -390.44,150.5 -155.01,0 -282.76,-51.52 -383.24,-153.21 -100.48,-101.69 -150.72,-226.42 -150.72,-375.55 0,-154.56 51.67,-283.35 153.59,-385.04 101.92,-101.67 231.1,-151.84 388.99,-151.84 157.89,0 287.08,48.81 386.13,147.78 99.04,98.97 147.85,229.11 147.85,389.1z"/>
                               <path class="fil0" d="M27720.96 2103.2l783.75 -219.63 0 951.74 1110.99 0 0 577.54 -1110.99 0 0 2049.92c0,273.89 47.34,470.46 140.66,591.13 93.29,120.65 241.14,181.66 444.95,181.66 186.6,0 338.76,-16.27 456.47,-48.81l34.44 569.42c-198.06,70.5 -436.35,105.76 -714.81,105.76 -763.64,0 -1145.46,-450.13 -1145.46,-1350.35l0 -2098.73 -654.52 0 0 -577.54 654.52 0 0 -732.12z"/>
                               <path class="fil0" d="M22526.69 6772.45l0 -1500.25 -0.02 0 0 -1385.54 0 -1051.34 671.78 0 129.18 0 0 572.31c128.32,-184.33 302,-335.79 521.05,-454.37 255.49,-138.3 535.4,-207.43 839.7,-207.43 436.35,0 799.5,145.08 1089.44,436.57 289.95,291.47 434.93,718.54 434.93,1279.83l0 2310.23 -800.92 0 0 -2228.87c0,-371.48 -84.7,-660.27 -254.09,-864.99 -169.36,-204.73 -414.8,-306.39 -736.34,-306.39 -287.09,0 -541.15,101.66 -762.21,305.05 -221.04,203.35 -331.57,451.46 -331.57,744.31l0 850.64 0 1500.25 -800.94 0z"/>
                               <path class="fil0" d="M21571.56 1639.53c0,135.56 -47.35,249.45 -142.1,341.65 -94.72,92.2 -219.62,138.3 -374.63,138.3 -149.27,0 -271.31,-46.1 -366.02,-138.3 -94.75,-92.2 -142.09,-206.09 -142.09,-341.65 0,-132.88 48.81,-245.4 144.96,-336.24 96.18,-90.83 219.62,-135.57 371.77,-135.57 146.4,0 268.42,44.74 364.59,135.57 96.17,90.83 143.52,203.35 143.52,336.24z"/>
                               <polygon class="fil0" points="21459.61,6772.45 20658.67,6772.45 20658.67,2835.31 21459.61,2835.31 "/>
                               <path class="fil0" d="M17455.73 6772.45l0 -1500.25 -0.02 0 0 -1219.84 0 -1217.04 671.78 0 129.18 0 0 616.74c102.15,-195.42 238.51,-353.57 409.08,-474.4 218.19,-154.55 455.01,-231.84 710.51,-231.84 54.53,0 126.33,5.42 215.31,16.28l0 715.84c-77.5,-16.28 -169.38,-24.4 -275.58,-24.4 -289.95,0 -538.27,107.11 -746.42,321.32 -208.14,214.21 -312.9,519.27 -312.9,915.14l0 582.2 0 1500.25 -800.94 0z"/>
                               <path class="fil0" d="M12272.95 8383.1l0 -3110.91 0 -1143.49 0 -24.71 0 -111.31 0 -1157.37 680.37 0 120.6 0 0 598.83c345.78,-458.83 842.41,-688.32 1489.93,-688.32 522.48,0 957.38,185.74 1304.76,558.58 347.36,372.84 521.02,851.43 521.02,1434.41 0,648.04 -186.58,1163.23 -561.23,1546.93 -374.63,383.67 -842.56,576.2 -1402.38,576.2 -284.21,0 -544.01,-54.25 -780.85,-162.7 -236.85,-108.45 -421.99,-263.02 -554.06,-463.68l-17.21 0 0 2147.54 -800.97 0zm800.97 -3872.08l0 634.5c0,317.25 117.67,582.98 351.67,798.56 233.97,215.57 515.28,324.02 845.42,324.02 401.93,0 720.56,-135.56 955.98,-405.37 235.41,-269.8 353.11,-633.14 353.11,-1091.39 0,-412.15 -116.26,-752.44 -348.81,-1020.88 -232.52,-268.44 -541.14,-402.66 -925.8,-402.66 -246.9,0 -473.71,66.42 -680.39,200.65 -206.7,134.22 -350.22,298.26 -430.6,492.15 -80.4,193.86 -120.57,351.15 -120.57,470.43z"/>
						   </g>
            <g>
						    <g>
						     <path class="fil1" d="M4819.39 2814.77c-950,324.21 -1736.21,1084.18 -2052.27,2117.47 -18.38,60.08 -34.91,120.28 -49.63,180.55 -52.42,-702.31 86.24,-1403.55 393.11,-2028.54l-5 2.36c448.41,-213.26 918.86,-333.93 1388.83,-369.08 60.48,14.78 120.89,31.16 181.15,49.59 48.55,14.86 96.5,30.75 143.82,47.65z"/>
                                <path class="fil2" d="M2802.43 3959.49c431.46,-594.15 1079.61,-1015.54 1821.98,-1207.39 17.07,4.92 34.11,9.82 51.16,15.03 14.08,4.32 28.12,8.76 42.11,13.24 -909.18,309.21 -1668.74,1017.29 -2010.58,1982.15 4.12,-271.19 36.31,-540.29 95.33,-803.03z"/>
						    </g>
                <g>
						     <path class="fil3" d="M4788.39 6793.03c950,-324.19 1736.18,-1084.18 2052.25,-2117.49 18.44,-60.28 34.81,-120.7 49.59,-181.19 52.53,702.51 -86.09,1403.97 -393.03,2029.12l7.12 -3.38c-449.08,213.92 -920.32,334.95 -1391.11,370.13 -60.4,-14.76 -120.76,-31.14 -180.97,-49.55 -48.55,-14.86 -96.54,-30.75 -143.86,-47.65z"/>
                    <path class="fil4" d="M6805.27 5648.7c-431.49,593.98 -1079.61,1015.21 -1821.87,1207 -17.07,-4.9 -34.11,-9.81 -51.14,-15.03 -14.1,-4.32 -28.15,-8.76 -42.17,-13.26 909.18,-309.19 1668.76,-1017.31 2010.6,-1982.21 -4.11,271.35 -36.35,540.62 -95.41,803.49z"/>
						    </g>
                <g>
						     <path class="fil5" d="M2717.49 5112.69c14.74,-60.23 31.27,-120.4 49.63,-180.45 14.83,-48.51 30.73,-96.41 47.61,-143.71 324.31,949.95 1084.27,1736.1 2117.53,2052.14 60,18.36 120.13,34.87 180.32,49.57 -702.3,52.4 -1403.46,-86.3 -2028.4,-393.16 -211.85,-447.08 -331.74,-915.98 -366.69,-1384.39z"/>
                    <path class="fil6" d="M3959.5 6805.4c-594.14,-431.49 -1015.56,-1079.66 -1207.39,-1822.09 4.9,-17.02 9.79,-34.06 15.01,-51.07 4.27,-13.98 8.81,-27.79 13.24,-41.67 309.24,908.92 1017.31,1668.29 1981.93,2010.11 -271.09,-4.12 -540.12,-36.31 -802.79,-95.29z"/>
						    </g>
                <g>
						     <path class="fil7" d="M6890.29 4495.03c-14.74,60.27 -31.27,120.46 -49.65,180.53 -14.81,48.51 -30.71,96.37 -47.58,143.65 -324.32,-949.93 -1084.3,-1736.06 -2117.5,-2052.08 -60.08,-18.37 -120.28,-34.89 -180.55,-49.61 702.35,-52.42 1403.57,86.3 2028.57,393.16 211.84,447.06 331.75,915.94 366.7,1384.35z"/>
                    <path class="fil8" d="M5648.11 2802.3c594.21,431.48 1015.72,1079.64 1207.57,1822.12 -4.93,17.05 -9.82,34.09 -15.04,51.14 -4.25,13.96 -8.79,27.75 -13.21,41.61 -309.29,-908.94 -1017.41,-1668.29 -1982.08,-2010.11 271.09,4.12 540.12,36.29 802.76,95.25z"/>
						    </g>
                <path class="fil9" d="M1032.84 7779.98c-554.71,-1812.1 271.37,-3740.38 1913.63,-4613.33 54.37,-28.88 109.07,-56.34 164.12,-82.41 -536.71,1093.15 -559.17,2419.53 56.09,3577.04 897.32,1688.13 2851.08,2453.1 4613.33,1913.63 -846.38,668.87 -1891.14,1032.87 -2976.11,1032.87 -1529.11,0 -2891.27,-714.52 -3771.06,-1827.81z"/>
                <path class="fil10" d="M7779.99 8574.94c-1228.19,375.96 -2549.36,118.31 -3541.15,-643.97l0.28 0.1c-431.32,-331.43 -800.47,-758.12 -1072.45,-1269.78 -28.87,-54.3 -56.34,-108.99 -82.42,-164 1093.12,536.74 2419.54,559.06 3577.02,-56.2 1688.13,-897.32 2453.06,-2851.07 1913.63,-4613.32 130.64,165.29 250.46,339.47 358.78,521.32l5.22 9.75 -5.16 -9.68c427.95,718.43 674.04,1557.78 674.04,2454.73 0,1529.11 -714.53,2891.27 -1827.81,3771.05z"/>
                <path class="fil11" d="M8574.92 1827.77c375.9,1227.94 117.9,2549.63 -644.05,3541.27 -331.41,431.17 -758.06,800.17 -1269.58,1072.04 -54.35,28.89 -109.05,56.34 -164.08,82.39 536.7,-1093.12 559.15,-2419.49 -56.09,-3576.96 -897.32,-1688.13 -2851.09,-2453.13 -4613.35,-1913.63 846.29,-668.89 1891.32,-1032.88 2976.13,-1032.88 1529.09,0 2891.21,714.51 3771.02,1827.77z"/>
                <path class="fil12" d="M1827.79 1032.86c1816.66,-556.11 3742.18,274.78 4613.33,1913.65 28.89,54.34 56.36,109.05 82.44,164.08 -1093.15,-536.74 -2419.58,-559.19 -3577.08,56.06 -1688.11,897.34 -2453.06,2851.06 -1913.63,4613.31 -664.7,-841.06 -1032.84,-1885.6 -1032.84,-2976.07 0,-1529.09 714.53,-2891.25 1827.79,-3771.03z"/>
                <path class="fil13" d="M668.84 7248.9c-1018,-1915.19 -290.7,-4293.01 1624.46,-5311.02 985.43,-523.8 2093.34,-585.45 3075.48,-261.06 431.28,331.43 800.37,758.06 1072.33,1269.68 28.89,54.34 56.36,109.05 82.44,164.08 -1093.15,-536.74 -2419.58,-559.19 -3577.08,56.06 -1688.11,897.34 -2453.06,2851.06 -1913.63,4613.31 -130.7,-165.38 -250.55,-339.63 -358.93,-521.57l-5.06 -9.48z"/>
                <path class="fil14" d="M358.6 5551.73c-53.24,-1403.16 680.76,-2780.62 2003.79,-3483.87 1078.47,-573.25 2309.3,-571.39 3341.33,-102.12 60.71,58.71 119.71,119.63 176.92,182.67 -990.28,-330.07 -2195.38,-238.2 -3292.15,344.79 -1285.46,683.28 -2095.11,1867.34 -2229.89,3058.54z"/>
                <path class="fil15" d="M802.78 6661.95c-186.51,-1617.35 515.97,-3190.74 1912.4,-3932.98 1169.89,-621.86 2550.76,-513.55 3694.95,160.79 10.42,18.84 20.84,37.66 30.98,56.75 8.36,15.7 16.51,31.44 24.61,47.18 -1093.88,-538.59 -2422.09,-561.75 -3580.98,54.27 -1372.8,729.72 -2135.16,2158.14 -2081.97,3613.99z"/>
                <path class="fil16" d="M8938.92 2358.84c1018.01,1915.19 290.72,4293.01 -1624.45,5311.02 -985.38,523.76 -2093.27,585.56 -3075.33,261.21 -431.32,-331.43 -800.47,-758.12 -1072.45,-1269.78 -28.87,-54.3 -56.34,-108.99 -82.42,-164 1093.12,536.74 2419.54,559.06 3577.02,-56.2 1688.13,-897.32 2453.06,-2851.07 1913.63,-4613.32 130.64,165.29 250.46,339.47 358.78,521.32l5.22 9.75z"/>
                <path class="fil17" d="M9249.18 4056.03c53.23,1403.15 -680.78,2780.6 -2003.81,3483.86 -1078.58,573.33 -2309.52,571.33 -3341.6,101.89 -60.65,-58.66 -119.61,-119.53 -176.76,-182.53 990.3,330.13 2195.44,238.32 3292.26,-344.69 1285.44,-683.28 2095.11,-1867.33 2229.91,-3058.52z"/>
                <path class="fil18" d="M8804.98 2945.79c186.52,1617.35 -515.96,3190.74 -1912.4,3932.98 -1169.85,621.84 -2550.72,513.63 -3694.9,-160.69 -10.42,-18.86 -20.86,-37.69 -31,-56.79 -8.41,-15.81 -16.66,-31.69 -24.82,-47.56 1093.93,538.75 2422.22,562.13 3581.16,-53.94 1372.81,-729.72 2135.15,-2158.13 2081.96,-3614z"/>
                <path class="fil19" d="M7248.93 8938.92c-1915.19,1018.01 -4293.01,290.72 -5311.02,-1624.45 -523.88,-985.54 -585.49,-2093.58 -260.97,-3075.82 331.41,-431.12 758.04,-800.1 1269.52,-1071.98 54.37,-28.88 109.07,-56.34 164.12,-82.41 -536.71,1093.15 -559.17,2419.53 56.09,3577.04 897.32,1688.13 2851.08,2453.1 4613.33,1913.63 -165.33,130.66 -339.55,250.5 -521.46,358.85l-9.62 5.14z"/>
                <g>
						     <path class="fil20" d="M5551.74 9249.16c-1403.14,53.25 -2780.6,-680.76 -3483.86,-2003.78 -573.35,-1078.62 -571.42,-2309.64 -101.95,-3341.75 58.69,-60.65 119.57,-119.59 182.56,-176.74 -330.13,990.34 -238.28,2195.56 344.71,3292.4 683.3,1285.44 1867.36,2095.1 3058.54,2229.88z"/>
                    <path class="fil21" d="M6661.98 8804.98c-1617.37,186.52 -3190.74,-515.96 -3933,-1912.4 -621.85,-1169.89 -513.54,-2550.75 160.82,-3694.97 18.82,-10.39 37.61,-20.82 56.68,-30.96 15.64,-8.29 31.41,-16.27 47.11,-24.33 -538.5,1093.82 -561.55,2421.93 54.38,3580.7 729.73,1372.82 2158.15,2135.15 3614.02,2081.96z"/>
						    </g>
                <path class="fil22" d="M2523.01 586.42c1884.9,-893.34 4157.77,-153.9 5146.88,1706.9 523.84,985.5 585.47,2093.52 260.99,3075.72 -331.41,431.17 -758.06,800.17 -1269.58,1072.04 -54.35,28.89 -109.05,56.34 -164.08,82.39 536.7,-1093.12 559.15,-2419.49 -56.09,-3576.96 -897.32,-1688.13 -2851.09,-2453.13 -4613.35,-1913.63 165.24,-130.6 339.35,-250.39 521.13,-358.68 57.42,-30.6 115.3,-59.95 174.11,-87.78z"/>
                <path class="fil23" d="M4056.04 358.6c1403.15,-53.23 2780.64,680.78 3483.86,2003.82 573.33,1078.55 571.45,2309.49 102.06,3341.58 -58.71,60.67 -119.61,119.61 -182.63,176.78 330.08,-990.3 238.22,-2195.47 -344.75,-3292.28 -683.28,-1285.44 -1867.32,-2095.1 -3058.55,-2229.9z"/>
                <path class="fil24" d="M2945.8 802.78c1617.37,-186.48 3190.73,515.96 3933.02,1912.41 621.84,1169.87 513.52,2550.72 -160.78,3694.91 -18.87,10.38 -37.67,20.84 -56.76,30.98 -15.62,8.31 -31.37,16.26 -47.07,24.34 538.48,-1093.83 561.53,-2421.9 -54.4,-3580.67 -729.72,-1372.8 -2158.15,-2135.13 -3614.02,-2081.98z"/>
						   </g>
						  </g>
        <path class="fil25" d="M15513.62 8643.78c-294.1,0 -511.42,228.73 -511.42,578.41 0,333.3 204.25,558.8 495.08,558.8 281.04,0 511.42,-200.98 511.42,-580.05 0,-326.79 -194.43,-557.16 -495.08,-557.16zm-6.53 115.98c236.93,0 351.28,228.77 351.28,447.72 0,249.97 -127.43,457.49 -352.92,457.49 -223.85,0 -351.28,-210.78 -351.28,-446.04 0,-241.84 117.65,-459.16 352.92,-459.16zm755.51 -98.03l0 1101.28 142.13 0 0 -981.99 511.43 0 0 981.99 142.13 0 0 -1101.28 -795.7 0zm1683.57 467.33l-428.1 0 0 -348.05 452.62 0 0 -119.29 -594.75 0 0 1101.28 619.23 0 0 -119.29 -477.1 0 0 -397.05 428.1 0 0 -117.61zm302.93 633.95l142.13 0 0 -441.15c32.69,8.17 71.88,9.77 114.38,9.77 138.89,0 261.42,-40.82 336.6,-120.89 55.54,-57.2 84.96,-135.63 84.96,-235.29 0,-98.04 -35.96,-178.1 -96.4,-230.37 -65.38,-58.84 -168.32,-91.5 -308.82,-91.5 -114.37,0 -204.24,9.78 -272.86,21.22l0 1088.21zm142.13 -985.27c24.52,-6.53 71.88,-11.44 134,-11.44 156.84,0 259.78,70.29 259.78,215.68 0,151.97 -104.58,235.3 -276.13,235.3 -47.39,0 -86.6,-3.27 -117.65,-11.45l0 -428.1zm1227.72 638.89l117.65 346.38 151.94 0 -375.8 -1101.28 -171.56 0 -374.16 1101.28 147.04 0 114.37 -346.38 390.52 0zm-361.09 -111.12l107.81 -318.62c21.24,-66.98 39.22,-133.99 55.57,-199.34l3.27 0c16.34,63.71 32.65,129.1 57.17,200.98l107.84 316.98 -331.67 0zm998.95 457.5l143.77 0 0 -980.37 336.6 0 0 -120.92 -815.34 0 0 120.92 334.97 0 0 980.37zm672.19 -1101.28l0 1101.28 151.94 0 344.77 -547.36c75.16,-122.55 150.31,-250 204.22,-370.89l4.9 1.63c-11.45,138.87 -13.04,269.59 -13.04,447.69l0 468.93 133.96 0 0 -1101.28 -142.13 0 -356.22 567c-80.06,130.7 -148.67,249.98 -204.25,364.36l-3.27 -1.63c9.81,-147.07 13.07,-292.47 13.07,-465.67l0 -464.06 -133.96 0zm1144.39 1098.01c47.36,6.54 122.51,13.07 220.56,13.07 179.76,0 303.91,-32.68 380.7,-102.94 55.57,-53.91 93.13,-125.82 93.13,-220.59 0,-163.38 -122.51,-249.97 -227.09,-276.12l0 -3.28c116.01,-42.46 186.26,-135.59 186.26,-241.8 0,-86.6 -34.32,-151.97 -91.49,-194.44 -68.62,-55.56 -160.12,-80.06 -302.28,-80.06 -99.67,0 -197.71,9.78 -259.78,22.85l0 1083.29zm142.13 -986.89c22.88,-4.9 60.48,-9.81 125.82,-9.81 143.77,0 241.8,50.67 241.8,179.76 0,106.17 -88.23,184.63 -238.54,184.63l-129.09 0 0 -354.58zm0 462.39l117.65 0c155.21,0 284.3,62.11 284.3,212.42 0,160.14 -135.63,214.05 -282.66,214.05 -50.64,0 -91.5,-1.64 -119.29,-6.53l0 -419.93zm812.72 -573.51l0 1101.28 142.13 0 0 -516.34 532.68 0 0 516.34 143.77 0 0 -1101.28 -143.77 0 0 460.79 -532.68 0 0 -460.79 -142.13 0zm1580.62 -17.95c-294.1,0 -511.42,228.73 -511.42,578.41 0,333.3 204.25,558.8 495.08,558.8 281.04,0 511.42,-200.98 511.42,-580.05 0,-326.79 -194.43,-557.16 -495.08,-557.16zm-6.53 115.98c236.93,0 351.28,228.77 351.28,447.72 0,249.97 -127.43,457.49 -352.92,457.49 -223.85,0 -351.28,-210.78 -351.28,-446.04 0,-241.84 117.65,-459.16 352.92,-459.16zm1370.83 212.42l0 790.83 165.01 0c84.97,-138.9 171.56,-290.84 246.75,-413.4 45.73,-80.06 80.06,-143.77 130.7,-245.07l4.9 0c-6.54,127.46 -9.81,194.44 -9.81,323.5l0 334.97 137.26 0 0 -790.83 -168.28 0 -246.75 408.49c-52.27,91.49 -80.06,147.04 -127.45,241.8l-4.9 0c6.53,-112.72 8.17,-191.17 8.17,-316.96l0 -333.33 -135.6 0zm1606.13 -310.45l0 1101.28 140.5 0 0 -504.89 45.77 0c186.26,0 256.52,99.67 307.18,245.1 29.39,86.6 60.44,184.63 99.66,259.79l153.58 0c-49.03,-98.04 -80.06,-199.34 -120.92,-312.09 -57.17,-148.67 -127.42,-259.78 -308.81,-284.3l416.65 -504.89 -171.56 0 -377.43 488.55 -44.13 0 0 -488.55 -140.5 0zm1531.63 754.9l117.65 346.38 151.94 0 -375.79 -1101.28 -171.56 0 -374.17 1101.28 147.04 0 114.38 -346.38 390.51 0zm-361.09 -111.12l107.81 -318.62c21.25,-66.98 39.23,-133.99 55.57,-199.34l3.27 0c16.35,63.71 32.66,129.1 57.17,200.98l107.85 316.98 -331.68 0zm726.1 -643.78l0 374.19c0,269.59 179.73,331.67 325.13,331.67 96.4,0 187.9,-24.51 264.72,-68.61l3.27 0 0 470.56 143.77 0 0 -1107.81 -143.77 0 0 526.13c-57.2,35.96 -140.53,63.71 -217.31,63.71 -155.25,0 -233.67,-86.6 -233.67,-236.9l0 -352.95 -142.13 0zm1623.13 467.33l-428.1 0 0 -348.05 452.61 0 0 -119.29 -594.75 0 0 1101.28 619.24 0 0 -119.29 -477.1 0 0 -397.05 428.1 0 0 -117.61zm1043.08 485.27c-57.17,27.75 -145.41,45.73 -232.03,45.73 -267.95,0 -423.16,-173.18 -423.16,-442.77 0,-289.21 171.55,-454.25 429.7,-454.25 91.5,0 168.32,19.61 222.23,45.77l34.32 -116.02c-37.6,-19.61 -124.18,-49 -261.45,-49 -341.47,0 -575.14,233.63 -575.14,578.41 0,361.09 233.66,558.8 544.11,558.8 133.96,0 238.54,-27.79 290.83,-53.95l-29.41 -112.71zm543.12 148.67l143.77 0 0 -980.37 336.61 0 0 -120.92 -815.34 0 0 120.92 334.96 0 0 980.37zm672.19 -3.28c47.37,6.54 122.52,13.07 220.56,13.07 179.76,0 303.92,-32.68 380.71,-102.94 55.56,-53.91 93.13,-125.82 93.13,-220.59 0,-163.38 -122.52,-249.97 -227.1,-276.12l0 -3.28c116.02,-42.46 186.27,-135.59 186.27,-241.8 0,-86.6 -34.32,-151.97 -91.5,-194.44 -68.61,-55.56 -160.11,-80.06 -302.27,-80.06 -99.67,0 -197.71,9.78 -259.79,22.85l0 1083.29zm142.14 -986.89c22.88,-4.9 60.47,-9.81 125.82,-9.81 143.77,0 241.8,50.67 241.8,179.76 0,106.17 -88.23,184.63 -238.54,184.63l-129.09 0 0 -354.58zm0 462.39l117.65 0c155.21,0 284.29,62.11 284.29,212.42 0,160.14 -135.63,214.05 -282.66,214.05 -50.64,0 -91.5,-1.64 -119.28,-6.53l0 -419.93zm1382.96 -106.17l-428.1 0 0 -348.05 452.61 0 0 -119.29 -594.75 0 0 1101.28 619.24 0 0 -119.29 -477.1 0 0 -397.05 428.1 0 0 -117.61zm302.92 -467.33l0 1101.28 142.14 0 0 -516.34 532.67 0 0 516.34 143.77 0 0 -1101.28 -143.77 0 0 460.79 -532.67 0 0 -460.79 -142.14 0zm1134.58 0l0 1101.28 142.14 0 0 -516.34 532.67 0 0 516.34 143.77 0 0 -1101.28 -143.77 0 0 460.79 -532.67 0 0 -460.79 -142.14 0zm1580.63 -17.95c-294.1,0 -511.42,228.73 -511.42,578.41 0,333.3 204.25,558.8 495.08,558.8 281.03,0 511.42,-200.98 511.42,-580.05 0,-326.79 -194.44,-557.16 -495.08,-557.16zm-6.53 115.98c236.93,0 351.28,228.77 351.28,447.72 0,249.97 -127.43,457.49 -352.92,457.49 -223.85,0 -351.28,-210.78 -351.28,-446.04 0,-241.84 117.65,-459.16 352.92,-459.16z"/>
						 </g>
						</svg>